# xmcd
#
# Track frame offsets:
#	150
#	22807
#	39438
#	56851
#	76174
#	94316
#	114636
#	130182
#	147737
#	166447
#	188558
#	206553
#	223977
#	241930
#
# Disc length: 3433 seconds
#
# Revision: 8
# Processed by: cddbd v1.5.2PL0 Copyright (c) Steve Scherf et al.
# Submitted via: EasyCDDAExtractor 11.0.0.1
#
DISCID=c90d670e
DTITLE=ΤΡΙΑΝΤΑΦΥΛΛΟΣ - ΓΙΑ ΜΕΝΑ ΕΙΣΑΙ ΕΣΥ
DYEAR=2002
DGENRE=Greek
TTITLE0=ΘΑ ΣΕ ΠΕΡΙΜΕΝΩ
TTITLE1=ΑΣΤΟ ΜΗ ΜΕ ΧΑΛΑΣ
TTITLE2=ΤΩΡΑ ΣΕ ΘΕΛΩ ΕΔΩ
TTITLE3=ΠΟΙΑ ΝΟΜΙΖΕΟΣ ΟΤΙ ΕΙΣΑΙ
TTITLE4=ΠΟΥ ΝΑ ΕΙΝΑΙ ΤΟ ΚΟΡΙΤΣΙ ΜΟΥ
TTITLE5=ΝΑ ΜΕ ΑΓΑΠΑΣ
TTITLE6=ΠΟΙΟΣ ΣΟΥ ΕΙΠΕ
TTITLE7=ΜΙΑ ΖΩΗ
TTITLE8=ΑΓΑΠΗΜΕΝΗ
TTITLE9=ΓΙΑ ΜΕΝΑ ΕΙΣΑΙ ΕΣΥ
TTITLE10=ΔΥΟ ΑΝΘΡΩΠΟΙ ΞΕΝΟΙ
TTITLE11=ΠΑΛΙ ΚΑΛΑ
TTITLE12=ΚΑΙ ΣΕ ΡΩΤΑΩ
TTITLE13=ΣΑΝ ΤΡΕΛΟΣ ΣΕ ΑΓΑΠΑΩ
EXTD=
EXTT0=
EXTT1=
EXTT2=
EXTT3=
EXTT4=
EXTT5=
EXTT6=
EXTT7=
EXTT8=
EXTT9=
EXTT10=
EXTT11=
EXTT12=
EXTT13=
PLAYORDER=
